# xmcd
#
# Track frame offsets:
#	150
#	18600
#	34125
#	55125
#	73425
#	85050
#	101325
#	126075
#	138975
#	156000
#	183000
#	198975
#	217350
#	228750
#	238913
#	260550
#	278175
#	294975
#
# Disc length: 4098 seconds
#
# Revision: 4
# Processed by: cddbd v1.5.2PL0 Copyright (c) Steve Scherf et al.
# Submitted via: audiograbber 1.83.01
#
DISCID=0a100012
DTITLE=Various Artist - DKG099
DYEAR=1900
DGENRE=Karaoke
TTITLE0=Take That - Back For Good
TTITLE1=Madness - Our House
TTITLE2=Ingram, James - Just Once
TTITLE3=Big Country - In A Big Country
TTITLE4=Shannon, Del - Runaway
TTITLE5=Guess Who - Undun
TTITLE6=C And C Music Factory - Things That Make You Go Hmmm
TTITLE7=Climax - Prescious And Few
TTITLE8=Motels - Suddenly Last Summer
TTITLE9=Robinson, Smokey - Cruisin'
TTITLE10=A Ha - Take On Me
TTITLE11=Taylor, James - Carolina On My Mind
TTITLE12=Cline, Patsy - Leavin' On Your Mind
TTITLE13=Sinatra, Frank - Brazil
TTITLE14=Tresvant, Ralph - Sensitivity
TTITLE15=OC Smith And Page, Patti - Little Green Apples
TTITLE16=McGuire, Barry - Eve Of Destruction
TTITLE17=Devo - Whip It
EXTD=
EXTT0=
EXTT1=
EXTT2=
EXTT3=
EXTT4=
EXTT5=
EXTT6=
EXTT7=
EXTT8=
EXTT9=
EXTT10=
EXTT11=
EXTT12=
EXTT13=
EXTT14=
EXTT15=
EXTT16=
EXTT17=
PLAYORDER=
